<?xml version="1.0" standalone="no"?>
<!DOCTYPE svg PUBLIC "-//W3C//DTD SVG 20010904//EN"
 "http://www.w3.org/TR/2001/REC-SVG-20010904/DTD/svg10.dtd">
<svg version="1.0" xmlns="http://www.w3.org/2000/svg"
 width="267.000000pt" height="267.000000pt" viewBox="0 0 267.000000 267.000000"
 preserveAspectRatio="xMidYMid meet">
<metadata>
Created by potrace 1.14, written by Peter Selinger 2001-2017
</metadata>
<g transform="translate(0.000000,267.000000) scale(0.100000,-0.100000)"
fill="#000000" stroke="none">
<path d="M1338 2532 c-16 -2 -28 -7 -28 -12 0 -7 60 -3 68 5 7 7 -15 11 -40 7z"/>
<path d="M1173 2512 c-13 -2 -23 -8 -23 -14 0 -11 79 -1 93 12 8 7 -24 8 -70
2z"/>
<path d="M1054 2489 c-64 -18 -291 -138 -371 -195 -45 -33 -114 -88 -154 -124
-40 -36 -80 -72 -91 -81 -10 -9 -18 -23 -18 -30 0 -11 -2 -11 -11 1 -9 12 -10
12 -5 -4 6 -19 -21 -73 -31 -62 -7 6 -59 -62 -92 -119 -21 -36 -21 -38 -2 -13
52 65 63 75 38 33 -26 -45 -89 -191 -105 -245 -6 -19 -13 -61 -15 -93 -4 -39
-11 -63 -22 -71 -15 -10 -16 -20 -8 -57 5 -24 6 -57 3 -74 l-6 -30 -11 30
c-10 29 -10 29 -18 -25 -11 -88 0 -170 43 -310 19 -65 27 -80 33 -65 4 11 8
15 8 8 1 -7 21 -44 46 -82 25 -38 45 -73 45 -76 0 -17 -31 21 -60 71 -16 30
-32 54 -35 54 -6 0 45 -121 60 -140 6 -8 20 -32 30 -52 11 -21 23 -38 27 -38
5 0 8 -6 8 -13 0 -22 126 -172 201 -239 39 -34 98 -82 132 -106 94 -65 250
-134 334 -147 61 -10 60 -20 0 -18 l-52 3 35 -16 c36 -16 52 -21 105 -30 45
-8 52 -22 10 -22 -20 0 -39 -3 -43 -7 -11 -12 235 4 343 21 22 4 72 8 110 10
95 5 122 9 178 24 48 13 77 33 35 24 -87 -18 -109 -21 -100 -12 5 5 16 11 23
12 8 2 28 9 44 15 17 7 35 14 40 15 9 2 66 27 105 46 8 4 36 19 63 33 62 35
60 20 -3 -17 -63 -38 -58 -46 6 -10 129 72 282 196 370 302 100 119 150 205
250 430 19 42 40 114 38 130 -1 6 -2 16 -3 22 0 5 -10 6 -22 2 -14 -5 -42 -1
-80 12 -45 16 -63 18 -76 10 -10 -6 -35 -59 -55 -119 -48 -140 -85 -216 -144
-296 -150 -204 -343 -352 -539 -415 -80 -26 -92 -29 -175 -40 -70 -10 -279
-11 -335 -2 -27 4 -72 11 -100 14 -27 4 -54 9 -58 11 -5 3 -23 7 -40 10 -128
20 -320 132 -439 257 -117 122 -235 346 -263 496 -3 14 -7 36 -10 50 -35 173
-18 387 44 549 10 27 15 53 11 58 -4 4 -4 17 0 28 8 19 9 19 9 -3 1 -15 16 7
46 64 25 47 42 91 38 97 -4 6 0 8 10 4 10 -3 17 -3 17 2 0 13 76 111 133 170
120 127 251 218 449 314 142 69 170 95 72 66z m-854 -1380 c0 -6 -4 -7 -10 -4
-5 3 -10 11 -10 16 0 6 5 7 10 4 6 -3 10 -11 10 -16z m2144 -335 c-9 -21 -29
-58 -46 -81 -31 -46 -161 -183 -173 -183 -10 0 6 21 110 144 49 59 95 121 102
138 7 17 16 29 18 26 3 -3 -2 -22 -11 -44z m-1994 -54 c6 -11 8 -20 6 -20 -3
0 -10 9 -16 20 -6 11 -8 20 -6 20 3 0 10 -9 16 -20z m1991 -27 c-12 -20 -14
-14 -5 12 4 9 9 14 11 11 3 -2 0 -13 -6 -23z m-1941 -43 c8 -5 12 -11 9 -14
-3 -3 -14 1 -25 9 -21 16 -8 20 16 5z m1881 -37 c-12 -20 -14 -14 -5 12 4 9 9
14 11 11 3 -2 0 -13 -6 -23z m-1836 -23 c10 -11 16 -20 13 -20 -3 0 -13 9 -23
20 -10 11 -16 20 -13 20 3 0 13 -9 23 -20z m1775 -44 c0 -2 -8 -10 -17 -17
-16 -13 -17 -12 -4 4 13 16 21 21 21 13z m-1699 -32 c17 -8 28 -18 25 -21 -3
-3 -20 4 -38 16 -39 24 -30 28 13 5z m1629 -59 c0 -7 -103 -81 -125 -89 -27
-10 -13 3 59 53 60 41 66 45 66 36z m-115 -24 c-3 -6 -11 -11 -17 -11 -6 0 -6
6 2 15 14 17 26 13 15 -4z m-155 -115 c-39 -38 -192 -103 -292 -125 -89 -20
-106 -22 -228 -28 -142 -6 -161 2 -25 11 50 3 124 13 165 22 89 18 295 86 348
113 45 24 51 25 32 7z m-786 -134 c3 -5 -1 -9 -9 -9 -8 0 -12 4 -9 9 3 4 7 8
9 8 2 0 6 -4 9 -8z"/>
<path d="M1226 2223 c3 -27 7 -59 9 -73 4 -25 16 -139 20 -175 4 -45 19 -94
51 -160 18 -38 50 -125 71 -192 21 -68 42 -121 48 -120 6 2 9 62 9 155 l-2
151 154 117 c135 103 170 134 148 134 -3 0 -18 -8 -32 -18 -38 -27 -130 -68
-178 -81 -50 -13 -108 -7 -140 14 -32 21 -78 103 -115 208 -18 48 -36 87 -40
87 -5 0 -6 -21 -3 -47z"/>
<path d="M904 1906 c4 -21 9 -43 12 -48 4 -6 8 -40 10 -77 11 -202 -45 -247
-314 -250 -41 -1 -62 -5 -60 -12 2 -6 7 -11 11 -11 3 0 33 -6 64 -13 32 -7 75
-16 97 -19 21 -4 41 -8 45 -10 3 -2 24 -7 46 -11 42 -8 50 -8 330 0 94 2 176
4 183 5 38 1 -3 20 -125 59 -76 25 -143 49 -150 55 -12 10 -123 313 -123 334
0 5 -7 16 -16 23 -14 12 -15 9 -10 -25z"/>
<path d="M2134 1851 c-5 -4 -77 -39 -161 -76 -130 -58 -161 -77 -214 -127 -34
-33 -111 -93 -170 -134 -155 -107 -151 -111 52 -45 69 23 131 41 137 41 11 0
54 -29 239 -159 39 -28 79 -51 89 -51 12 0 9 6 -12 23 -56 43 -125 123 -149
171 -53 105 -25 161 140 291 21 17 47 37 58 46 12 9 16 18 10 22 -5 3 -14 3
-19 -2z"/>
<path d="M1488 1804 c-80 -42 -13 -168 76 -143 17 5 32 9 33 9 1 0 9 12 17 28
25 48 -12 109 -71 116 -15 2 -40 -2 -55 -10z"/>
<path d="M1120 1723 c-15 -6 -49 -41 -51 -52 0 -3 -2 -14 -4 -25 -10 -55 57
-101 109 -74 59 30 75 102 30 137 -26 21 -54 25 -84 14z"/>
<path d="M175 1658 c-21 -52 -35 -128 -24 -128 7 0 15 27 22 80 2 8 5 20 8 25
9 14 20 65 15 65 -2 0 -11 -19 -21 -42z"/>
<path d="M1693 1458 c-41 -46 -34 -118 16 -141 36 -18 67 -11 91 20 63 80 -39
195 -107 121z"/>
<path d="M1305 1337 c-171 -238 -133 -210 -288 -213 -72 -1 -161 -3 -196 -3
-82 -1 -70 -17 18 -26 135 -13 245 -71 259 -135 10 -47 -20 -220 -53 -302 -4
-10 -3 -18 3 -18 14 0 178 298 192 348 6 23 13 59 15 80 2 20 24 95 50 166 25
71 42 133 38 137 -5 4 -21 -12 -38 -34z"/>
<path d="M1430 1351 c0 -6 41 -67 91 -136 50 -68 88 -129 84 -135 -3 -5 -8
-18 -10 -27 -2 -10 -18 -63 -35 -118 -17 -55 -33 -109 -35 -119 -2 -10 -9 -34
-16 -53 -22 -69 -1 -54 38 27 64 131 135 200 205 200 31 0 128 -48 212 -104
38 -26 72 -45 77 -44 5 2 -11 24 -34 49 -23 25 -79 87 -125 136 -63 70 -99 99
-154 128 -39 21 -118 73 -175 116 -125 94 -123 93 -123 80z"/>
<path d="M1091 1331 c-13 -4 -33 -19 -44 -33 -45 -60 27 -155 97 -128 87 33
37 184 -53 161z"/>
<path d="M1426 1148 c-38 -34 -41 -74 -8 -108 25 -25 44 -29 93 -21 20 3 50
44 54 71 8 69 -83 107 -139 58z"/>
<path d="M440 681 c0 -30 176 -179 286 -242 30 -17 57 -29 60 -26 6 6 -70 67
-83 67 -19 0 -139 91 -200 151 -35 35 -63 57 -63 50z"/>
</g>
</svg>
